<svg width="322" height="46" viewBox="0 0 322 46" fill="none" xmlns="http://www.w3.org/2000/svg">
<path d="M119.694 35.7857L124.247 12.8116H129.825L129.238 15.6558L128.154 21.2402L127.381 26.7987L125.581 35.7857H119.694ZM132.339 30.0129C131.124 30.0438 129.921 29.7693 128.838 29.2142C127.819 28.6499 127.044 27.7241 126.665 26.6168C126.183 25.0829 126.077 23.4543 126.355 21.8701C126.502 20.1488 126.95 18.4671 127.677 16.9025C128.285 15.5963 129.226 14.4759 130.405 13.6558C131.567 12.8862 132.935 12.49 134.325 12.5194C135.558 12.5156 136.77 12.8382 137.839 13.4548C138.909 14.0714 139.798 14.9603 140.419 16.0324C141.125 17.3017 141.472 18.741 141.425 20.1948C141.439 21.5279 141.196 22.8511 140.709 24.0909C140.258 25.245 139.59 26.301 138.743 27.2013C137.922 28.0733 136.938 28.7729 135.847 29.2597C134.743 29.7544 133.548 30.0109 132.339 30.0129ZM131.501 25.2337C132.236 25.2492 132.959 25.0434 133.577 24.6428C134.19 24.2318 134.679 23.659 134.99 22.987C135.344 22.2166 135.518 21.3747 135.499 20.5259C135.521 20.0967 135.459 19.6673 135.315 19.2627C135.171 18.8581 134.948 18.4862 134.661 18.1688C134.353 17.8613 133.984 17.623 133.579 17.4696C133.173 17.3163 132.74 17.2513 132.307 17.2792C131.582 17.2642 130.869 17.4653 130.257 17.8571C129.642 18.2755 129.15 18.8517 128.831 19.5259C128.477 20.2986 128.303 21.1426 128.322 21.9935C128.302 22.4205 128.365 22.8475 128.509 23.2497C128.653 23.652 128.874 24.0217 129.16 24.3376C129.468 24.6413 129.835 24.8777 130.238 25.0319C130.641 25.1861 131.071 25.2548 131.501 25.2337Z" fill="#F4F4EF"/>
<path d="M149.821 30.0128C148.205 30.0513 146.601 29.7251 145.126 29.0582C143.856 28.4786 142.774 27.5489 142.005 26.3764C141.244 25.1567 140.857 23.7386 140.89 22.2985C140.867 20.5435 141.312 18.8144 142.18 17.292C143.025 15.8262 144.254 14.6223 145.733 13.8115C147.37 12.9258 149.207 12.4786 151.065 12.5128C152.59 12.4715 154.103 12.7918 155.482 13.4478C156.659 14.0219 157.648 14.9232 158.333 16.0452C159.021 17.2245 159.369 18.5737 159.339 19.9414C159.342 20.4213 159.312 20.9008 159.248 21.3764C159.184 21.8375 159.106 22.279 159.003 22.7206H145.513L146.068 19.5972H156.269L153.819 20.5063C153.987 19.8309 153.96 19.1214 153.741 18.4608C153.535 17.9181 153.153 17.4608 152.658 17.1621C151.995 16.8271 151.255 16.6752 150.514 16.722C149.773 16.7687 149.058 17.0125 148.441 17.4284C147.811 17.9344 147.337 18.6099 147.074 19.3764C146.771 20.2327 146.62 21.1362 146.629 22.0453C146.584 22.5231 146.647 23.005 146.814 23.4548C146.98 23.9047 147.245 24.3107 147.59 24.6427C148.422 25.2563 149.444 25.551 150.472 25.4738C151.215 25.4724 151.954 25.3496 152.658 25.1102C153.339 24.8926 153.973 24.5491 154.528 24.0972L156.978 27.8115C155.956 28.5908 154.793 29.1641 153.554 29.4998C152.338 29.8345 151.082 30.007 149.821 30.0128Z" fill="#F4F4EF"/>
<path d="M171.855 12.532C173.123 12.4933 174.377 12.8007 175.485 13.4216C176.473 14.0098 177.224 14.9293 177.607 16.019C178.04 17.4204 178.078 18.9154 177.716 20.3372L175.853 29.7009H169.965L171.7 20.9022C171.956 20.074 171.884 19.1784 171.5 18.4022C171.272 18.0928 170.968 17.8495 170.617 17.6967C170.266 17.544 169.881 17.4871 169.501 17.532C168.578 17.5218 167.686 17.8707 167.012 18.5061C166.248 19.2873 165.749 20.292 165.587 21.3762L163.91 29.7398H157.984L161.331 12.8567H166.909L165.948 17.6035L165.207 16.2268C165.925 15.0372 166.962 14.0761 168.199 13.4541C169.33 12.8649 170.582 12.5492 171.855 12.532Z" fill="#F4F4EF"/>
<path d="M186.892 30.0129C185.29 30.0494 183.7 29.7185 182.243 29.0454C180.985 28.4583 179.92 27.5209 179.174 26.3441C178.434 25.1283 178.058 23.7239 178.09 22.2986C178.059 20.5375 178.519 18.8028 179.419 17.2921C180.308 15.8245 181.57 14.6229 183.075 13.8116C184.715 12.9305 186.55 12.4836 188.408 12.5129C190.016 12.473 191.611 12.7993 193.076 13.4674C194.326 14.0442 195.385 14.9706 196.126 16.1363C196.869 17.353 197.245 18.7605 197.21 20.1882C197.242 21.9351 196.793 23.6568 195.912 25.162C195.031 26.6671 193.752 27.8967 192.219 28.7142C190.581 29.5942 188.748 30.0411 186.892 30.0129ZM187.234 25.2986C187.972 25.3127 188.696 25.0998 189.311 24.6882C189.914 24.2773 190.399 23.7127 190.716 23.0519C191.075 22.2711 191.251 21.4183 191.232 20.5584C191.261 19.7001 190.966 18.8627 190.407 18.2142C190.109 17.8946 189.745 17.6451 189.34 17.4835C188.936 17.3219 188.501 17.2521 188.066 17.2791C187.331 17.2637 186.608 17.4694 185.99 17.87C185.375 18.2831 184.889 18.8613 184.584 19.5389C184.227 20.327 184.051 21.1858 184.068 22.0519C184.025 22.9283 184.326 23.7865 184.906 24.4415C185.214 24.7395 185.58 24.9696 185.981 25.1172C186.381 25.2648 186.808 25.3266 187.234 25.2986Z" fill="#F4F4EF"/>
<path d="M203.284 30.013C202.044 30.0432 200.819 29.7359 199.737 29.1234C198.739 28.5296 197.986 27.5938 197.616 26.487C197.191 25.0759 197.149 23.576 197.493 22.1429L199.351 12.8117H205.238L203.503 21.5844C203.25 22.4106 203.321 23.3034 203.703 24.0779C203.92 24.3832 204.213 24.6251 204.553 24.7791C204.893 24.9331 205.267 24.9936 205.638 24.9546C206.557 24.9833 207.451 24.6528 208.133 24.0325C208.887 23.2546 209.371 22.2525 209.513 21.1753L211.183 12.8117H217.071L213.724 29.7273H208.153L209.113 24.9546L209.855 26.3312C209.137 27.514 208.114 28.4789 206.895 29.1234C205.778 29.7036 204.541 30.0085 203.284 30.013Z" fill="#F4F4EF"/>
<path d="M230.064 30.0129C228.835 30.0056 227.629 29.6767 226.564 29.0586C225.499 28.4404 224.612 27.5543 223.99 26.487C223.279 25.21 222.926 23.762 222.971 22.2987C222.954 20.9659 223.195 19.6426 223.68 18.4026C224.132 17.2544 224.8 16.2049 225.647 15.3116C226.475 14.4429 227.466 13.7478 228.562 13.2662C229.69 12.7716 230.91 12.5216 232.14 12.5324C233.249 12.5138 234.349 12.7352 235.365 13.1818C236.282 13.5967 237.039 14.304 237.518 15.1948C238.079 16.3208 238.346 17.5724 238.292 18.8311C238.3 20.2677 238.125 21.6994 237.77 23.0909C237.446 24.3621 236.917 25.571 236.203 26.6688C235.542 27.6777 234.66 28.5198 233.624 29.1298C232.539 29.7445 231.308 30.0498 230.064 30.0129ZM232.14 25.2337C232.88 25.2538 233.609 25.0478 234.23 24.6428C234.835 24.2289 235.317 23.6564 235.623 22.987C235.979 22.2171 236.155 21.3752 236.138 20.5259C236.178 19.6597 235.877 18.8127 235.3 18.1688C234.996 17.8636 234.632 17.6266 234.231 17.4733C233.829 17.32 233.401 17.2538 232.972 17.2792C232.242 17.2695 231.526 17.4798 230.915 17.8831C230.299 18.2995 229.807 18.8762 229.49 19.5519C229.134 20.3241 228.957 21.1681 228.974 22.0194C228.954 22.4465 229.017 22.8734 229.161 23.2757C229.305 23.678 229.526 24.0477 229.813 24.3636C230.12 24.6623 230.486 24.8937 230.886 25.0435C231.287 25.1932 231.714 25.258 232.14 25.2337ZM234.617 29.7272L235.21 26.8896L236.293 21.3052L237.067 15.7142L238.898 6.57139H244.786L240.194 29.7272H234.617Z" fill="#F4F4EF"/>
<path d="M251.331 30.0128C249.715 30.0513 248.111 29.7251 246.636 29.0582C245.366 28.4803 244.286 27.5501 243.522 26.3764C242.758 25.158 242.37 23.7389 242.406 22.2985C242.38 20.5431 242.826 18.8133 243.696 17.292C244.541 15.8232 245.773 14.6186 247.255 13.8115C248.893 12.9266 250.729 12.4795 252.588 12.5128C254.113 12.4715 255.626 12.7918 257.005 13.4478C258.182 14.0219 259.171 14.9232 259.855 16.0452C260.546 17.224 260.896 18.5732 260.868 19.9414C260.869 20.4214 260.837 20.901 260.771 21.3764C260.713 21.8285 260.631 22.2772 260.526 22.7206H247.023L247.578 19.5972H257.779L255.329 20.5063C255.503 19.8316 255.476 19.1202 255.251 18.4608C255.045 17.9181 254.663 17.4608 254.168 17.1621C253.504 16.8271 252.764 16.6752 252.024 16.722C251.283 16.7687 250.568 17.0125 249.951 17.4284C249.321 17.933 248.849 18.6092 248.59 19.3764C248.282 20.2315 248.129 21.1356 248.139 22.0453C248.094 22.5231 248.157 23.005 248.324 23.4548C248.49 23.9047 248.755 24.3107 249.1 24.6427C249.931 25.2563 250.954 25.551 251.982 25.4738C252.725 25.4724 253.464 25.3496 254.168 25.1102C254.85 24.8919 255.486 24.5485 256.044 24.0972L258.488 27.8115C257.465 28.5908 256.303 29.1641 255.064 29.4998C253.847 29.8345 252.592 30.007 251.331 30.0128Z" fill="#F4F4EF"/>
<path d="M266.084 30.013C264.665 30.0275 263.249 29.8706 261.867 29.5455C260.789 29.3233 259.753 28.9287 258.798 28.3767L260.939 24.2273C261.793 24.7557 262.724 25.1457 263.699 25.3832C264.701 25.6441 265.732 25.7793 266.768 25.7858C267.475 25.8308 268.184 25.72 268.844 25.4611C269.027 25.3927 269.185 25.2719 269.299 25.1137C269.414 24.9556 269.48 24.7671 269.489 24.5715C269.489 24.2338 269.276 23.9936 268.844 23.8377C268.316 23.6565 267.772 23.524 267.219 23.4416C266.575 23.3442 265.859 23.2078 265.124 23.039C264.403 22.8762 263.703 22.6345 263.034 22.3182C262.393 22.03 261.834 21.5833 261.409 21.0195C260.952 20.3469 260.725 19.5418 260.765 18.7273C260.706 17.4647 261.123 16.2264 261.932 15.2598C262.799 14.2898 263.915 13.5779 265.156 13.2014C266.633 12.7228 268.177 12.4903 269.728 12.513C270.895 12.5108 272.059 12.6261 273.203 12.8572C274.217 13.0489 275.199 13.3857 276.118 13.8572L274.035 18.0066C273.246 17.528 272.38 17.1918 271.475 17.013C270.671 16.8433 269.853 16.7541 269.031 16.7468C268.319 16.6945 267.606 16.8217 266.955 17.1169C266.775 17.1941 266.619 17.3198 266.506 17.4802C266.392 17.6405 266.324 17.8294 266.31 18.026C266.31 18.3377 266.523 18.5845 266.955 18.7598C267.475 18.9636 268.016 19.1094 268.567 19.1949C269.216 19.3117 269.913 19.4481 270.656 19.604C271.385 19.7511 272.093 19.9866 272.765 20.3053C273.399 20.6002 273.952 21.0459 274.377 21.604C274.835 22.2718 275.061 23.0727 275.022 23.8832C275.059 25.1176 274.633 26.3207 273.829 27.2533C272.958 28.2195 271.844 28.9307 270.605 29.3117C269.146 29.7902 267.619 30.027 266.084 30.013Z" fill="#F4F4EF"/>
<path d="M274.358 29.7272L277.704 12.8441H283.566L280.219 29.7596L274.358 29.7272ZM281.451 10.9415C280.55 10.9819 279.669 10.6675 278.994 10.0648C278.702 9.80519 278.469 9.48514 278.311 9.12653C278.153 8.76793 278.074 8.37921 278.078 7.98692C278.07 7.53487 278.158 7.08631 278.338 6.67173C278.517 6.25716 278.782 5.88628 279.117 5.58432C279.872 4.9141 280.858 4.56701 281.864 4.61679C282.774 4.5663 283.669 4.86307 284.372 5.44796C284.66 5.69738 284.889 6.00772 285.044 6.35681C285.199 6.7059 285.276 7.08514 285.268 7.46744C285.283 7.93585 285.196 8.40183 285.015 8.83338C284.833 9.26492 284.561 9.6518 284.217 9.96744C283.455 10.6355 282.467 10.984 281.457 10.9415H281.451Z" fill="#F4F4EF"/>
<path d="M289.531 36.0389C287.983 36.0544 286.441 35.8711 284.939 35.4934C283.653 35.1732 282.436 34.6186 281.348 33.8571L283.979 29.7337C284.738 30.3138 285.594 30.7535 286.506 31.0324C287.535 31.3578 288.607 31.522 289.685 31.5194C291.211 31.5194 292.338 31.1904 293.064 30.5324C293.84 29.7738 294.351 28.7829 294.522 27.7077L295.044 25.1103L296.224 20.7142L297.14 15.909L297.733 12.8181H303.343L300.615 26.6168C299.953 29.9674 298.677 32.3809 296.785 33.8571C294.893 35.3332 292.475 36.0605 289.531 36.0389ZM289.963 28.8311C288.696 28.8517 287.442 28.5667 286.306 27.9999C285.204 27.4408 284.276 26.5871 283.624 25.5324C282.925 24.3577 282.575 23.0052 282.618 21.6363C282.607 20.4354 282.836 19.2445 283.291 18.1346C283.746 17.0246 284.419 16.0182 285.268 15.1752C286.108 14.3393 287.103 13.6775 288.196 13.2272C289.348 12.7528 290.582 12.5144 291.826 12.5259C292.967 12.5051 294.096 12.7496 295.128 13.2402C296.102 13.7507 296.861 14.5964 297.269 15.6233C297.787 17.0615 297.909 18.6141 297.623 20.1168C297.484 21.7587 297.047 23.361 296.334 24.8441C295.743 26.0565 294.838 27.0861 293.716 27.8246C292.586 28.5289 291.278 28.8876 289.95 28.8571L289.963 28.8311ZM291.697 24.0843C292.417 24.1035 293.129 23.931 293.761 23.5843C294.347 23.2526 294.83 22.7622 295.154 22.1687C295.506 21.5113 295.684 20.7731 295.669 20.0259C295.685 19.6502 295.619 19.2756 295.476 18.9281C295.334 18.5805 295.118 18.2683 294.844 18.0129C294.199 17.4723 293.373 17.2005 292.536 17.2532C291.811 17.2369 291.094 17.4139 290.459 17.7661C289.865 18.1025 289.376 18.5996 289.047 19.2012C288.696 19.8569 288.521 20.593 288.538 21.3376C288.522 21.7138 288.59 22.0888 288.738 22.4349C288.885 22.781 289.107 23.0894 289.389 23.3376C290.034 23.8707 290.851 24.1458 291.684 24.1103L291.697 24.0843Z" fill="#F4F4EF"/>
<path d="M315.524 12.532C316.79 12.4932 318.042 12.8006 319.148 13.4217C320.138 14.0076 320.89 14.9279 321.269 16.0191C321.706 17.4198 321.744 18.9158 321.379 20.3372L319.522 29.7009H313.635L315.369 20.9022C315.622 20.0737 315.55 19.1793 315.169 18.4022C314.94 18.0933 314.634 17.8505 314.282 17.6978C313.93 17.5451 313.545 17.488 313.164 17.532C312.234 17.5188 311.336 17.8678 310.655 18.5061C309.892 19.2874 309.393 20.292 309.23 21.3762L307.586 29.7269H301.699L305.045 12.8437H310.623L309.662 17.5905L308.876 16.1814C309.596 14.9934 310.632 14.0327 311.868 13.4087C313.003 12.8361 314.254 12.5361 315.524 12.532Z" fill="#F4F4EF"/>
<path d="M61.8526 1.3309C42.4753 1.25948 26.7285 10.9867 26.6833 23.0517C26.6382 35.1166 42.3206 44.9413 61.7043 45.0127C81.088 45.0841 96.8284 35.3893 96.8736 23.2984C96.9187 11.2075 81.2492 1.40233 61.8526 1.3309ZM51.1419 27.0452C50.3767 27.0452 49.6286 26.8167 48.9924 26.3886C48.3561 25.9605 47.8602 25.352 47.5674 24.6401C47.2746 23.9281 47.1979 23.1448 47.3472 22.389C47.4965 21.6332 47.865 20.939 48.4061 20.3941C48.9472 19.8492 49.6366 19.4782 50.3871 19.3278C51.1376 19.1775 51.9155 19.2547 52.6225 19.5496C53.3295 19.8444 53.9337 20.3438 54.3589 20.9845C54.784 21.6252 55.0109 22.3785 55.0109 23.1491C55.0109 24.1824 54.6033 25.1734 53.8777 25.904C53.1521 26.6347 52.168 27.0452 51.1419 27.0452ZM62.0009 29.6426C59.8601 29.6426 58.1319 26.7335 58.1319 23.1491C58.1319 19.5647 59.8601 16.6556 62.0009 16.6556C64.1418 16.6556 65.8699 19.5647 65.8699 23.1491C65.8699 26.7335 64.1353 29.6426 62.0009 29.6426ZM72.4214 27.0452C71.6562 27.0452 70.9082 26.8167 70.2719 26.3886C69.6357 25.9605 69.1398 25.352 68.8469 24.6401C68.5541 23.9281 68.4775 23.1448 68.6268 22.389C68.7761 21.6332 69.1445 20.939 69.6856 20.3941C70.2267 19.8492 70.9161 19.4782 71.6666 19.3278C72.4171 19.1775 73.1951 19.2547 73.902 19.5496C74.609 19.8444 75.2133 20.3438 75.6384 20.9845C76.0635 21.6252 76.2904 22.3785 76.2904 23.1491C76.2904 24.1824 75.8828 25.1734 75.1572 25.904C74.4317 26.6347 73.4476 27.0452 72.4214 27.0452Z" fill="#F4F4EF"/>
<path d="M22.2661 45.9739L19.6868 39.1233C18.5679 36.1539 16.8416 33.4545 14.6198 31.2004C12.398 28.9463 9.73043 27.1877 6.79011 26.0389L0 23.396L6.79656 20.7986C9.74593 19.673 12.427 17.935 14.6656 15.6975C16.9042 13.46 18.6502 10.7731 19.79 7.81161L22.4209 0.973946L25.0002 7.8181C26.1191 10.7875 27.8454 13.4869 30.0672 15.741C32.289 17.9951 34.9566 19.7537 37.8969 20.9025L44.687 23.5519L37.884 26.1493C34.9357 27.2767 32.2555 29.0153 30.0171 31.2526C27.7787 33.4899 26.0322 36.1758 24.8906 39.1363L22.2661 45.9739Z" fill="#F8E60F"/>
</svg>
